<?xml version="1.0" standalone="no"?>
<!DOCTYPE svg PUBLIC "-//W3C//DTD SVG 20010904//EN"
 "http://www.w3.org/TR/2001/REC-SVG-20010904/DTD/svg10.dtd">
<svg version="1.0" xmlns="http://www.w3.org/2000/svg"
 width="310.000000pt" height="163.000000pt" viewBox="0 0 310.000000 163.000000"
 preserveAspectRatio="xMidYMid meet">

<g transform="translate(0.000000,163.000000) scale(0.100000,-0.100000)"
fill="#000000" stroke="none">
<path d="M595 1248 c-76 -205 -147 -394 -157 -420 l-18 -48 99 0 99 0 57 158
c79 215 85 225 79 137 -16 -228 -19 -287 -15 -291 2 -2 50 -4 105 -4 l102 0
134 358 c73 196 144 385 157 420 l23 62 -98 0 -99 0 -58 -157 c-32 -87 -64
-169 -71 -183 -12 -22 -13 -18 -8 40 3 36 8 118 12 183 l7 117 -105 0 -105 0
-140 -372z"/>
<path d="M1279 1593 c-72 -188 -299 -798 -299 -805 0 -5 43 -7 96 -6 l96 3
154 410 c84 226 154 413 154 418 0 4 -43 7 -95 7 -95 0 -96 0 -106 -27z"/>
<path d="M1511 1598 c-5 -13 -73 -196 -151 -408 -79 -212 -145 -391 -147 -397
-4 -10 19 -13 94 -13 l98 0 65 173 65 172 9 -172 8 -173 132 -1 c86 0 123 -3
106 -9 -14 -5 -259 -72 -545 -149 -471 -128 -528 -141 -602 -141 -266 0 -390
199 -296 473 17 48 29 87 27 87 -1 0 -32 -37 -67 -82 -130 -167 -233 -346
-279 -484 -31 -95 -31 -222 -1 -280 31 -58 88 -110 163 -147 63 -31 68 -32
200 -32 197 1 113 -32 1765 685 479 208 888 386 910 395 96 41 -10 18 -411
-90 -236 -64 -437 -118 -447 -121 -15 -5 -16 -2 -7 21 5 14 10 28 10 31 0 2
-49 4 -110 4 -81 0 -110 3 -110 13 0 6 15 53 34 102 l34 90 97 5 98 5 28 78
28 77 -95 0 c-88 0 -96 2 -89 18 4 9 18 47 32 84 l25 67 101 3 100 3 28 68 28
67 -304 0 -304 0 -98 -119 c-54 -66 -99 -118 -101 -117 -1 2 7 28 19 57 11 30
31 82 44 117 l24 62 -100 0 c-94 0 -100 -1 -108 -22z m383 -368 c-75 -201
-140 -369 -145 -374 -5 -6 -9 42 -9 115 0 69 -3 166 -6 215 l-5 89 147 162
c82 89 149 161 151 160 1 -2 -59 -167 -133 -367z"/>
<path d="M2480 1605 c-28 -34 18 -77 60 -55 21 11 25 26 14 54 -8 20 -57 21
-74 1z m29 -35 c1 13 2 13 11 0 8 -12 10 -10 10 8 0 16 -4 21 -12 16 -10 -6
-10 -4 0 7 18 20 41 -5 26 -29 -19 -29 -49 -21 -51 13 l-2 30 9 -30 c4 -16 8
-23 9 -15z"/>
<path d="M493 624 c-7 -3 -13 -16 -13 -29 0 -44 50 -60 74 -22 20 32 -22 67
-61 51z m55 -28 c2 -10 -2 -22 -10 -27 -18 -12 -28 -11 -28 2 0 5 5 7 10 4 6
-3 10 -4 10 -1 0 2 3 11 6 20 4 11 0 14 -15 13 -14 -1 -21 -8 -22 -22 0 -11
-3 -14 -6 -7 -3 7 -2 20 1 28 8 21 50 14 54 -10z"/>
</g>
</svg>
