<?xml version="1.0" standalone="no"?>
<!DOCTYPE svg PUBLIC "-//W3C//DTD SVG 20010904//EN"
 "http://www.w3.org/TR/2001/REC-SVG-20010904/DTD/svg10.dtd">
<svg version="1.0" xmlns="http://www.w3.org/2000/svg"
 width="225.000000pt" height="225.000000pt" viewBox="0 0 225.000000 225.000000"
 preserveAspectRatio="xMidYMid meet">

<g transform="translate(0.000000,225.000000) scale(0.100000,-0.100000)"
fill="#000000" stroke="none">
<path d="M1165 1209 c-33 -19 -45 -41 -45 -84 0 -71 67 -112 129 -80 53 27 67
95 29 140 -26 29 -82 41 -113 24z m79 -45 c9 -8 16 -26 16 -39 0 -56 -71 -73
-99 -24 -13 24 -13 29 2 53 20 30 57 35 81 10z"/>
<path d="M120 1126 c0 -68 3 -86 14 -86 11 0 16 15 18 53 l3 52 19 -37 c11
-21 23 -38 27 -38 38 0 -18 132 -58 138 -22 3 -23 1 -23 -82z"/>
<path d="M292 1178 c-43 -74 -72 -127 -72 -133 0 -4 9 -5 21 -3 14 2 35 28 66
86 40 74 43 82 25 82 -12 0 -28 -13 -40 -32z"/>
<path d="M470 1157 c16 -30 30 -68 30 -85 0 -25 4 -32 20 -32 16 0 20 7 20 38
0 21 11 56 25 81 30 52 30 51 6 51 -11 0 -23 -12 -31 -30 -7 -16 -15 -30 -19
-30 -4 0 -15 14 -24 30 -10 17 -27 30 -38 30 -18 0 -17 -4 11 -53z"/>
<path d="M680 1125 c0 -78 2 -85 20 -85 16 0 20 7 20 30 0 27 3 30 33 30 41 0
57 15 57 55 0 44 -16 55 -77 55 l-53 0 0 -85z m90 30 c0 -20 -5 -25 -25 -25
-20 0 -25 5 -25 25 0 20 5 25 25 25 20 0 25 -5 25 -25z"/>
<path d="M900 1125 c0 -78 2 -85 20 -85 16 0 20 7 20 30 0 22 5 30 18 30 10 0
22 -12 29 -30 8 -20 18 -30 32 -30 21 0 21 1 6 31 -15 28 -15 32 -1 48 19 20
20 44 6 72 -9 15 -22 19 -70 19 l-60 0 0 -85z m95 30 c0 -14 -8 -21 -27 -23
-24 -3 -28 0 -28 23 0 23 4 26 28 23 19 -2 27 -9 27 -23z"/>
<path d="M1370 1196 c0 -8 10 -16 23 -18 20 -3 22 -9 25 -70 2 -52 6 -68 17
-68 12 0 15 15 15 70 0 68 1 70 25 70 16 0 25 6 25 15 0 12 -14 15 -65 15 -50
0 -65 -3 -65 -14z"/>
<path d="M1600 1125 l0 -85 55 0 c42 0 55 3 55 15 0 11 -11 15 -40 15 -33 0
-40 3 -40 20 0 16 7 20 35 20 24 0 35 5 35 15 0 10 -11 15 -35 15 -28 0 -35 4
-35 20 0 17 7 20 40 20 29 0 40 4 40 15 0 12 -13 15 -55 15 l-55 0 0 -85z"/>
<path d="M1820 1125 c0 -78 2 -85 20 -85 18 0 20 7 20 85 0 78 -2 85 -20 85
-18 0 -20 -7 -20 -85z"/>
<path d="M1980 1125 c0 -78 2 -85 19 -85 17 0 20 8 23 52 l3 52 32 -52 c22
-35 39 -52 53 -52 19 0 20 6 20 85 0 68 -3 85 -14 85 -11 0 -16 -15 -18 -52
l-3 -53 -34 53 c-25 38 -40 52 -57 52 -23 0 -24 -2 -24 -85z"/>
<path d="M332 1125 c-17 -37 -15 -85 3 -85 12 0 15 13 15 55 0 30 -2 55 -3 55
-2 0 -9 -11 -15 -25z"/>
</g>
</svg>
